<svg version="1.1" id="Capa_1" xmlns="http://www.w3.org/2000/svg" xmlns:xlink="http://www.w3.org/1999/xlink" x="0px" y="0px"
	 viewBox="0 0 550 550" style="enable-background:new 0 0 511.998 511.998;" xml:space="preserve">
<path style="fill:#FFDA44;" d="M319.913,8.691c6.38,22.332,9.597,45.445,9.562,68.672c0,139.222-112.866,252.088-252.088,252.088
	c-23.227,0.035-46.341-3.182-68.672-9.562C46.623,453.852,185.95,531.73,319.913,493.822s211.841-177.235,173.932-311.199
	C470.001,98.373,404.163,32.526,319.913,8.691z"/>
<path style="fill:#231F20; stroke-width:20; stroke:rgb(0, 0, 0);" d="M251.241,511.998C134.654,511.746,32.324,434.355,0.352,322.245
	c-1.304-4.625,1.382-9.423,6.007-10.727c1.556-0.443,3.208-0.435,4.755,0.009c21.549,6.154,43.863,9.266,66.273,9.232
	c134.363-0.156,243.239-109.033,243.396-243.396c0.035-22.41-3.077-44.724-9.232-66.273c-1.321-4.616,1.347-9.432,5.963-10.753
	c1.556-0.443,3.199-0.452,4.755-0.009c138.562,39.291,219.039,183.468,179.748,322.03
	C470.201,434.52,367.819,511.946,251.241,511.998z M21.701,332.137c44.68,126.783,183.677,193.334,310.46,148.654
	s193.334-183.677,148.654-310.46c-24.496-69.498-79.156-124.158-148.654-148.654c4.007,18.289,6.024,36.961,6.007,55.685
	c-0.165,143.96-116.821,260.616-260.781,260.781C58.663,338.153,39.991,336.145,21.701,332.137z"/>
</svg>
